<svg width="154" height="88" viewBox="0 0 154 88" fill="none" xmlns="http://www.w3.org/2000/svg">
<path d="M68.12 66.48C70.0934 65.6 71.96 65.16 73.72 65.16C76.0134 65.16 77.1867 66.5067 77.24 69.2H73C70.84 69.2 69.0934 69.7333 67.76 70.8C66.4534 71.8667 65.8 73.3733 65.8 75.32C65.8 77.1867 66.3734 78.68 67.52 79.8C68.6934 80.92 70.4 81.48 72.64 81.48C73.6 81.48 74.56 81.2533 75.52 80.8C76.48 80.3467 77.3334 79.76 78.08 79.04L78.76 81H81.76V68.04C81.76 66.7333 81.4 65.56 80.68 64.52C79.96 63.4533 78.9734 62.6133 77.72 62C76.4934 61.3867 75.1334 61.08 73.64 61.08C72.7334 61.08 71.5467 61.2533 70.08 61.6C68.64 61.9467 67.5734 62.3467 66.88 62.8L68.12 66.48ZM69.72 75.32C69.72 74.44 70 73.7067 70.56 73.12C71.1467 72.5067 71.9334 72.2 72.92 72.2H77.28V75.68C76.6134 76.3733 75.8667 76.92 75.04 77.32C74.2134 77.72 73.3867 77.92 72.56 77.92C71.68 77.92 70.9867 77.6667 70.48 77.16C69.9734 76.6267 69.72 76.0133 69.72 75.32Z" fill="#99BAED"/>
<path d="M90.7219 68.64C91.7886 67.68 92.9619 66.8667 94.2419 66.2C95.5219 65.5333 96.6419 65.2 97.6019 65.2L96.6819 61.6C95.7486 61.6 94.6552 61.9333 93.4019 62.6C92.1752 63.2667 91.0819 64 90.1219 64.8L88.6419 61.6H86.2419V81H90.7219V68.64Z" fill="#99BAED"/>
<path d="M108.984 61.08C110.958 61.08 112.678 61.5067 114.144 62.36C115.611 63.1867 116.731 64.3733 117.504 65.92C118.304 67.4667 118.704 69.28 118.704 71.36C118.704 73.36 118.304 75.1333 117.504 76.68C116.704 78.2 115.558 79.3867 114.064 80.24C112.598 81.0933 110.878 81.52 108.904 81.52C108.184 81.52 107.371 81.36 106.464 81.04C105.584 80.72 104.758 80.2933 103.984 79.76L103.064 81H100.704V53.2L105.184 52.76V62.12C106.491 61.4267 107.758 61.08 108.984 61.08ZM108.904 77.64C110.504 77.64 111.758 77.0533 112.664 75.88C113.598 74.7067 114.064 73.2 114.064 71.36C114.064 69.44 113.611 67.8933 112.704 66.72C111.798 65.52 110.531 64.92 108.904 64.92C108.211 64.92 107.558 65.0267 106.944 65.24C106.358 65.4533 105.771 65.7733 105.184 66.2V76.44C106.278 77.24 107.518 77.64 108.904 77.64Z" fill="#99BAED"/>
<path d="M139.061 71.16C139.061 68.2267 138.328 65.8133 136.861 63.92C135.395 62.0267 133.235 61.08 130.381 61.08C128.435 61.08 126.741 61.5067 125.301 62.36C123.888 63.2133 122.795 64.4133 122.021 65.96C121.275 67.48 120.901 69.2533 120.901 71.28C120.901 74.4267 121.821 76.92 123.661 78.76C125.528 80.5733 128.221 81.48 131.741 81.48C134.355 81.48 136.741 80.7333 138.901 79.24L137.541 75.96C136.395 76.5467 135.408 76.9867 134.581 77.28C133.781 77.5467 132.861 77.68 131.821 77.68C128.088 77.68 126.021 75.9467 125.621 72.48H139.061V71.16ZM125.701 69.48C125.888 68.04 126.368 66.92 127.141 66.12C127.941 65.32 128.981 64.92 130.261 64.92C131.515 64.92 132.515 65.3067 133.261 66.08C134.008 66.8533 134.501 67.9867 134.741 69.48H125.701Z" fill="#99BAED"/>
<path d="M146.933 68.64C147.999 67.68 149.173 66.8667 150.453 66.2C151.733 65.5333 152.853 65.2 153.813 65.2L152.893 61.6C151.959 61.6 150.866 61.9333 149.613 62.6C148.386 63.2667 147.293 64 146.333 64.8L144.853 61.6H142.453V81H146.933V68.64Z" fill="#99BAED"/>
<path d="M42.5769 0.759888C36.6202 1.28104 32.0928 6.54113 32.6135 12.4986L35.2934 43.1323L25.1587 47.8576C21.7645 41.9598 14.3635 39.5392 8.08123 42.4691C1.44788 45.5635 -1.4216 53.4469 1.67094 60.0812C4.76467 66.7139 12.649 69.5853 19.2839 66.4916C23.8365 64.3687 26.6151 59.988 26.9109 55.3056L39.3231 49.5174L40.5162 63.1595C36.61 65.7574 34.2057 70.3538 34.6424 75.3577C35.2808 82.6503 41.7088 88.0423 48.9996 87.4052C56.2922 86.7668 61.6851 80.3393 61.0478 73.0483C60.4436 66.1434 54.6467 60.9445 47.8425 60.9531L46.8673 49.8135L74.7354 36.8178C80.156 34.2906 82.4469 27.7393 79.9198 22.3199L45.8525 38.2079L42.5769 0.759888ZM19.6723 57.9048C17.7751 61.1907 13.5731 62.3167 10.2872 60.4195C7.00121 58.5224 5.87535 54.3202 7.77242 51.0344C9.66999 47.7477 13.8716 46.6225 17.1575 48.5196C20.4435 50.4168 21.5699 54.6181 19.6723 57.9048ZM53.7852 77.5999C51.8881 80.8858 47.686 82.0118 44.4001 80.1146C41.1141 78.2175 39.9882 74.0154 41.8854 70.7295C43.7829 67.4428 47.9845 66.3176 51.2705 68.2148C54.5563 70.1118 55.6828 74.3132 53.7852 77.5999Z" fill="#99BAED"/>
</svg>
